<svg aria-hidden="true" style="position: absolute; width: 0; height: 0; overflow: hidden;" version="1.1" xmlns="http://www.w3.org/2000/svg" xmlns:xlink="http://www.w3.org/1999/xlink">
<defs>
<symbol id="icon-hand" viewBox="0 0 32 32">
<path d="M5.381 23.279c0-0.193 0.036-0.38 0.097-0.556l-1.812-1.050c-0.236 0.501-0.366 1.047-0.366 1.606 0 0.567 0.129 1.103 0.353 1.587l1.818-1.051c-0.057-0.171-0.090-0.351-0.090-0.536z"></path>
<path d="M3.985 25.445c0.625 0.894 1.625 1.506 2.77 1.606v-2.101c-0.373-0.074-0.708-0.269-0.953-0.556l-1.817 1.050z"></path>
<path d="M10.176 21.101c-0.639-0.908-1.647-1.49-2.753-1.589v2.096c0.363 0.074 0.692 0.264 0.938 0.541l1.815-1.048z"></path>
<path d="M8.13 23.279c0-0.565-0.471-1.040-1.041-1.040-0.573 0-1.040 0.475-1.040 1.040 0 0.547 0.445 1.040 1.040 1.040 0.602 0 1.041-0.497 1.041-1.040z"></path>
<path d="M6.756 21.608v-2.096c-1.106 0.099-2.115 0.68-2.753 1.584l1.815 1.052c0.244-0.276 0.574-0.467 0.938-0.54z"></path>
<path d="M19.151 17.553c-0.32-0.351-0.835-0.44-1.253-0.211l-3.702 2.012c-0.271 0.148-0.594 0.144-0.863-0.011s-0.434-0.432-0.443-0.741l-0.365-13.117c0-0.734-0.59-1.324-1.315-1.324s-1.316 0.59-1.316 1.315v11.062c0 0.184-0.15 0.334-0.334 0.334s-0.334-0.15-0.334-0.334v-12.556c0-0.725-0.59-1.315-1.315-1.315s-1.316 0.59-1.316 1.315v12.002c0 0.184-0.15 0.334-0.334 0.334s-0.334-0.15-0.334-0.334v-10.078c0-0.726-0.59-1.316-1.315-1.316s-1.316 0.59-1.316 1.316v10.632c0 0.184-0.15 0.334-0.334 0.334s-0.334-0.15-0.334-0.334v-8.891c0-0.725-0.59-1.315-1.315-1.315s-1.316 0.59-1.316 1.315l0.51 19.067c0.043 1.618 1.345 2.886 2.963 2.886h8.158c1.087 0 2.085-0.593 2.605-1.549l5.060-9.311c0.209-0.385 0.151-0.862-0.144-1.186zM7.089 27.736c-2.457 0-4.457-1.999-4.457-4.457 0-2.429 1.985-4.457 4.457-4.457 2.487 0 4.457 2.047 4.457 4.457 0 2.458-1.999 4.457-4.457 4.457z"></path>
<path d="M7.423 24.951v2.101c1.145-0.101 2.145-0.712 2.771-1.606l-1.817-1.050c-0.244 0.285-0.58 0.481-0.954 0.555z"></path>
<path d="M8.798 23.279c0 0.184-0.033 0.364-0.091 0.536l1.819 1.051c0.224-0.483 0.353-1.020 0.353-1.587 0-0.56-0.13-1.105-0.366-1.602l-1.812 1.047c0.061 0.174 0.097 0.362 0.097 0.555z"></path>
</symbol>
<symbol id="icon-instagram" viewBox="0 0 32 32">
<path d="M10.4 2.667h11.2c4.267 0 7.733 3.467 7.733 7.733v11.2c0 2.051-0.815 4.018-2.265 5.468s-3.417 2.265-5.468 2.265h-11.2c-4.267 0-7.733-3.467-7.733-7.733v-11.2c0-2.051 0.815-4.018 2.265-5.468s3.417-2.265 5.468-2.265zM10.133 5.333c-1.273 0-2.494 0.506-3.394 1.406s-1.406 2.121-1.406 3.394v11.733c0 2.653 2.147 4.8 4.8 4.8h11.733c1.273 0 2.494-0.506 3.394-1.406s1.406-2.121 1.406-3.394v-11.733c0-2.653-2.147-4.8-4.8-4.8h-11.733zM23 7.333c0.442 0 0.866 0.176 1.179 0.488s0.488 0.736 0.488 1.178c0 0.442-0.176 0.866-0.488 1.178s-0.737 0.488-1.179 0.488c-0.442 0-0.866-0.176-1.179-0.488s-0.488-0.736-0.488-1.178c0-0.442 0.176-0.866 0.488-1.178s0.737-0.488 1.179-0.488zM16 9.333c1.768 0 3.464 0.702 4.714 1.953s1.953 2.946 1.953 4.714-0.702 3.464-1.953 4.714c-1.25 1.25-2.946 1.953-4.714 1.953s-3.464-0.702-4.714-1.953c-1.25-1.25-1.953-2.946-1.953-4.714s0.702-3.464 1.953-4.714c1.25-1.25 2.946-1.953 4.714-1.953zM16 12c-1.061 0-2.078 0.421-2.828 1.172s-1.172 1.768-1.172 2.828c0 1.061 0.421 2.078 1.172 2.828s1.768 1.172 2.828 1.172c1.061 0 2.078-0.421 2.828-1.172s1.172-1.768 1.172-2.828c0-1.061-0.421-2.078-1.172-2.828s-1.768-1.172-2.828-1.172z"></path>
</symbol>
<symbol id="icon-jet" viewBox="0 0 32 32">
<path d="M2.171 2.133h-1.317l-0.659 14.027 0.659 14.027h1.317l0.527-11.524 5.202 0.922v-6.849l-5.202 0.922-0.527-11.524z"></path>
<path d="M31.146 2.133h-1.317l-0.527 11.524-5.202-0.922v6.849l5.202-0.922 0.527 11.524h1.317l0.659-14.027-0.659-14.027z"></path>
<path d="M13.3 8.323l-4.083 2.898v9.746l4.083 2.898h5.466l4.083-2.898v-9.68l-4.083-2.898h-5.466v-0.066zM20.083 16.16c0 2.239-1.844 4.083-4.083 4.083s-4.083-1.844-4.083-4.083 1.844-4.083 4.083-4.083c2.239 0 4.083 1.844 4.083 4.083z"></path>
<path d="M16 18.926c1.528 0 2.766-1.238 2.766-2.766s-1.238-2.766-2.766-2.766c-1.528 0-2.766 1.238-2.766 2.766s1.238 2.766 2.766 2.766z"></path>
</symbol>
<symbol id="icon-logo" viewBox="0 0 72 32">
<path d="M0 10.003h10.568c0.297 0 3.256 0.492 1.277-1.301-2.17-1.966-2.41-3.603-2.482-4.903s1.205-3.799 3.816-3.799h21.46v4.5h-6.627v10.507h-4.917v-10.507h-6.2c-0.904 0-2.109 0-1.033 1.001l1.878 2.218c1.234 1.384 0.833 2.067 0.833 3.113 0 2.602-2.181 4.175-3.888 4.175h-14.685v-5.003zM45.513 0h-7.933l-4.447 15.007h4.949l0.803-2.101h5.221l0.775 2.101h4.848l-4.216-15.007zM39.99 9.303l1.707-5.504 1.607 5.504h-3.314zM65.394 10.003c-1.908 0-1.908-0.7-1.908-0.7 1.635 0 3.084-2.373 3.084-4.803s-2.381-4.5-4.29-4.5h-10.672v15.006h5.423v-5.003c0 0 2.309 2.702 3.514 3.802s1.305 1.201 2.941 1.201h8.513v-5.003c0.001-0-4.697-0-6.604-0zM60.474 6.501h-3.442v-2.702h3.442c1.578 0 1.851 2.702 0 2.702zM0 16.907l4.443 15.010h4.518l2.181-7.105 1.936 7.105h4.418l4.418-15.010h-4.82l-1.506 5.004-1.506-5.004h-5.824l-1.305 5.004-1.406-5.004h-5.548zM33.301 16.994h-7.933l-4.447 15.006h4.949l0.803-2.101h5.222l0.775 2.101h4.848l-4.218-15.006zM27.779 26.296l1.707-5.504 1.607 5.504h-3.314zM65.494 21.411l6.506 0v-4.503h-10.148c-2.61 0-3.739 2.607-3.666 3.908s0.312 2.936 2.482 4.902c1.979 1.793-0.98 1.301-1.277 1.301 0 0-4.639-0.005-5.845-0.005s-1.924-0.721-1.924-0.721c1.636 0 3.085-2.373 3.085-4.803s-2.382-4.5-4.29-4.5h-10.672v15.006h5.422v-5.003c0 0 2.31 2.702 3.514 3.803s1.305 1.2 2.94 1.2l11.865-0.079c1.707 0 4.29-1.573 4.29-4.174 0-1.047 0.020-1.624-1.214-3.009l-1.879-2.218c-1.077-1-0.092-1.105 0.811-1.105zM48.609 23.491h-3.443v-2.702h3.443c1.578 0 1.851 2.702 0 2.702z"></path>
</symbol>
<symbol id="icon-robot" viewBox="0 0 32 32">
<path d="M25.493 10.24l-3.36-1.12v-1.653h-7.787v1.653l-3.36 1.12v3.787h14.507v-3.787z"></path>
<path d="M19.573 18.24l-0.213 1.333c0.16-0.053 0.373-0.107 0.587-0.107 0.427 0 0.8 0.107 1.12 0.32l0.267-1.6h-1.76v0.053z"></path>
<path d="M19.413 23.573l0.533 2.027h1.76l-0.64-2.347c-0.48 0.373-1.173 0.48-1.653 0.32z"></path>
<path d="M21.76 26.613h-1.813c-0.32 0-0.533 0.267-0.533 0.533v0.64h2.933v-0.64c0-0.32-0.267-0.533-0.587-0.533z"></path>
<path d="M15.627 26.72h-1.813c-0.32 0-0.533 0.267-0.533 0.533v0.64h2.933v-0.64c0-0.267-0.267-0.533-0.587-0.533z"></path>
<path d="M20.907 21.547c0-0.587-0.48-1.013-1.013-1.013-0.587 0-1.013 0.48-1.013 1.013s0.427 1.013 1.013 1.013c0.587 0.053 1.013-0.427 1.013-1.013z"></path>
<path d="M9.92 21.227v-1.387l-0.8 0.693c0.267 0.267 0.48 0.64 0.533 1.013 0.107-0.107 0.16-0.213 0.267-0.32z"></path>
<path d="M13.12 23.893c-0.32 0.427-0.8 0.693-1.333 0.747h-0.053c-0.107 0-0.16 0-0.267 0-0.533 0-1.013-0.213-1.387-0.533l-0.373 2.080h1.76l0.32-1.547 1.387 0.96h2.453l-2.507-1.707z"></path>
<path d="M7.68 20.96c-0.587 0-1.013 0.48-1.013 1.013 0 0.587 0.48 1.013 1.013 1.013 0.587 0 1.013-0.48 1.013-1.013 0-0.48-0.427-1.013-1.013-1.013z"></path>
<path d="M22.72 24.64l0.533 2.027h1.76l-0.64-2.347c-0.533 0.373-1.173 0.427-1.653 0.32z"></path>
<path d="M12.533 20.8c0-0.053 0.267-1.28 0.213-1.173l0.267-1.387 1.76-1.067c0.427 0 7.147 0 6.933 0l1.28 1.12-0.213 1.173-0.213 1.12c0.16-0.053 0.373-0.107 0.587-0.107 0.427 0 0.8 0.107 1.12 0.32v-0.107l0.267-1.493 0.96-2.080v-2.133h-14.507c0 0.107-0.16 4.213-0.213 5.6 0.587-0.16 1.227-0.107 1.76 0.213z"></path>
<path d="M25.067 27.627h-1.813c-0.32 0-0.533 0.267-0.533 0.533v0.64h2.88v-0.64c0-0.267-0.267-0.533-0.533-0.533z"></path>
<path d="M11.573 27.307h-1.813c-0.32 0-0.533 0.267-0.533 0.533v0.64h2.933v-0.64c-0.053-0.267-0.267-0.533-0.587-0.533z"></path>
<path d="M24.213 22.613c0-0.587-0.48-1.013-1.013-1.013-0.587 0-1.013 0.48-1.013 1.013s0.427 1.013 1.013 1.013c0.533 0 1.013-0.48 1.013-1.013z"></path>
<path d="M11.467 23.627c0.587 0 1.013-0.48 1.013-1.013 0-1.333-2.080-1.387-2.080 0 0.053 0.587 0.533 1.013 1.067 1.013z"></path>
<path d="M0 12.267v1.76h6.293v-4.107h-3.947c-0.907 0.907-1.44 1.44-2.347 2.347zM3.68 10.773c0.8 0 1.493 0.64 1.493 1.493s-0.64 1.493-1.493 1.493c-0.8 0-1.493-0.64-1.493-1.493s0.693-1.493 1.493-1.493z"></path>
<path d="M3.68 12.96c0.427 0 0.747-0.32 0.747-0.747s-0.32-0.747-0.747-0.747c-0.373 0-0.747 0.32-0.747 0.747s0.32 0.747 0.747 0.747z"></path>
<path d="M9.92 10.72h-0.747v2.507h0.747v-2.507z"></path>
<path d="M8.16 10.72h-0.747v2.507h0.747v-2.507z"></path>
</symbol>
<symbol id="icon-soldier" viewBox="0 0 32 32">
<path d="M19.52 9c0-2.56-2.027-5.013-4.587-5.44-2.827-0.48-5.653-0.48-8.427 0-2.507 0.427-4.587 2.88-4.587 5.44v1.6h17.6v-1.6z"></path>
<path d="M21.44 17.373v-2.773c0-1.28-1.387-1.493-1.867-1.813h-0.053v-0.8h-17.6v0.8h-0.053l-1.013 0.48c-0.533 0.267-0.853 0.747-0.853 1.333v2.773c0 0.587 0.32 1.067 0.853 1.333l1.013 0.48c-0.16 0.96-0.64 1.867-1.333 2.613-0.267 0.267-0.267 0.693 0 1.013l1.173 1.227c0.427 0.427 0.373 0.693 1.227 3.093 0.213 0.587 0.853 0.96 1.44 0.8 1.067-0.213 2.027-0.427 2.987-0.533 0.32 0.907 1.12 1.44 1.973 1.44h2.773c0.907 0 1.707-0.533 2.027-1.44 0.96 0.107 1.973 0.32 2.987 0.533 0.64 0.16 1.28-0.213 1.44-0.8 0.267-0.853 0.64-1.973 0.853-2.507 0.16-0.533 0.48-0.693 1.547-1.813 0.267-0.267 0.267-0.693 0-1.013-0.693-0.693-1.173-1.6-1.333-2.613 0.427-0.32 1.813-0.533 1.813-1.813zM1.92 18.067l-0.64-0.32c-0.16-0.053-0.267-0.213-0.267-0.427v-2.773c0-0.16 0.107-0.32 0.267-0.427l0.64-0.267v4.213zM3.733 14.333c-0.16-0.373 0.107-0.8 0.427-0.8h4.853c0.373 0 0.587 0.427 0.427 0.8-0.533 1.28-1.653 2.080-2.88 2.080s-2.293-0.8-2.827-2.080zM5.333 25.693c-0.587 0-1.067-0.48-1.067-1.067s0.48-1.067 1.067-1.067c0.587 0 1.067 0.48 1.067 1.067s-0.48 1.067-1.067 1.067zM12.107 27.773h-2.773c-0.853 0-1.387-0.96-0.907-1.707l1.387-2.027c0.427-0.64 1.333-0.64 1.76 0l1.387 2.027c0.533 0.693 0 1.707-0.853 1.707zM14.827 20.573c-0.16 0.213-0.48 0.267-0.747 0.107-3.413-2.72-6.613-0.107-6.773 0-0.213 0.16-0.533 0.16-0.747-0.053-0.16-0.213-0.16-0.533 0.053-0.747 0.053-0.053 3.947-3.307 8.053 0 0.32 0.107 0.32 0.48 0.16 0.693zM16.107 25.693c-0.587 0-1.067-0.48-1.067-1.067s0.48-1.067 1.067-1.067c0.587 0 1.067 0.48 1.067 1.067-0.053 0.587-0.533 1.067-1.067 1.067zM17.707 14.333c-0.533 1.28-1.653 2.080-2.88 2.080s-2.347-0.8-2.88-2.080c-0.16-0.373 0.107-0.8 0.427-0.8h4.853c0.373 0 0.64 0.427 0.48 0.8zM20.427 17.373c0 0.427-0.48 0.48-0.907 0.693v-4.213c0.373 0.213 0.907 0.267 0.907 0.693v2.827z"></path>
</symbol>
<symbol id="icon-star" viewBox="0 0 32 32">
<path d="M17.556 5.911c-0.778 0.167-1.389 0.778-1.556 1.556h1.556v-1.556z"></path>
<path d="M18.389 5.911v1.556h1.556c-0.167-0.778-0.778-1.389-1.556-1.556z"></path>
<path d="M17.556 9.856v-1.556h-1.556c0.111 0.778 0.778 1.389 1.556 1.556z"></path>
<path d="M19.944 8.3h-1.556v1.556c0.778-0.167 1.389-0.778 1.556-1.556z"></path>
<path d="M26.667 15.3c-2-0.444-3.833 1.056-3.833 3.056 0 1.5 1.056 2.722 2.444 3.056 0.944-1.833 1.389-3.889 1.389-6.111z"></path>
<path d="M25.722 10.522c-1.944-4.889-6.778-8.389-12.389-8.389-4.167 0-7.889 1.889-10.333 4.889 1.111-0.056 2.278-0.111 3.5-0.278 0.278-0.056 0.556 0.167 0.611 0.5s-0.167 0.611-0.5 0.611c-1.556 0.222-3.056 0.333-4.5 0.333-0.278 0.389-0.5 0.778-0.667 1.167 2.444 0.111 5.111-0.111 7.833-0.667 0.278-0.056 0.611 0.111 0.667 0.444 0.056 0.278-0.111 0.611-0.444 0.667-2.778 0.556-5.667 0.889-8.556 0.667-0.167 0.389-0.278 0.722-0.389 1.111 4.111 0.444 8-0.222 10.833-0.944 0.278-0.056 0.611 0.111 0.667 0.389s-0.111 0.611-0.389 0.667c-3.722 0.944-7.667 1.389-11.389 0.944-0.056 0.333-0.111 0.722-0.167 1.056 4.222 0.611 9 0.167 13.778-1.333 0.278-0.111 0.611 0.056 0.722 0.333s-0.056 0.611-0.333 0.722c-4.611 1.444-9.556 2.111-14.278 1.389 0 0.444 0 0.833 0 1.278 6.278 0.889 18.944-1.167 25.722-5.556zM17.944 4.744c1.722 0 3.167 1.389 3.167 3.167 0 1.722-1.389 3.167-3.167 3.167s-3.167-1.389-3.167-3.167c0.056-1.778 1.444-3.167 3.167-3.167z"></path>
<path d="M22 18.356c0-2.389 2.167-4.333 4.611-3.889-0.056-1-0.278-1.944-0.556-2.889-6.778 4.222-19.056 6.611-25.944 5.722 0.056 0.333 0.111 0.667 0.167 1 4.389 0.778 9.389 0.389 14.444-1.278 0.278-0.111 0.611 0.056 0.722 0.333s-0.056 0.611-0.333 0.722c-4.611 1.5-9.667 2.111-14.5 1.389 0.111 0.389 0.278 0.778 0.444 1.167 4.333 0.722 8.556 0.167 11.611-0.556 0.278-0.056 0.611 0.111 0.667 0.389s-0.111 0.611-0.444 0.667c-3.667 0.833-7.5 1.167-11.278 0.667 0.222 0.444 0.5 0.833 0.722 1.222 2.667 0.333 5.611 0.278 8.778-0.222 0.333-0.056 0.611 0.167 0.611 0.444 0.056 0.278-0.167 0.611-0.444 0.611-3.278 0.556-5.778 0.556-8 0.389 0.389 0.444 0.833 0.889 1.278 1.278 1.944 0.111 4 0.056 6.167-0.278 0.278-0.056 0.611 0.167 0.611 0.5 0.056 0.278-0.167 0.611-0.5 0.611-1.611 0.222-3.167 0.333-4.778 0.333 2.111 1.333 4.556 2.167 7.222 2.167 4.944 0 9.222-2.667 11.556-6.667-1.611-0.5-2.833-2-2.833-3.833zM18.833 26.078c-1.5 0-2.722-1.222-2.722-2.722s1.222-2.722 2.722-2.722c1.5 0 2.722 1.222 2.722 2.722-0.056 1.5-1.222 2.722-2.722 2.722z"></path>
<path d="M18.833 25.244c1.043 0 1.889-0.846 1.889-1.889s-0.846-1.889-1.889-1.889c-1.043 0-1.889 0.846-1.889 1.889s0.846 1.889 1.889 1.889z"></path>
</symbol>
<symbol id="icon-swords" viewBox="0 0 32 32">
<path d="M29.256 24.683c0.132-0.132 0.132-0.395 0-0.527l-3.69-3.69c-0.132-0.132-0.395-0.132-0.527 0l-0.066 0.132c-0.132 0.132-0.132 0.395 0 0.527l3.69 3.69c0.132 0.132 0.395 0.132 0.527 0l0.066-0.132z"></path>
<path d="M29.717 23.76c0.132 0.132 0.395 0.132 0.527 0l0.066-0.066c0.132-0.132 0.132-0.395 0-0.527l-3.69-3.69c-0.132-0.132-0.395-0.132-0.527 0l-0.066 0.066c-0.132 0.132-0.132 0.395 0 0.527l3.69 3.69z"></path>
<path d="M24.578 21.52c-0.132-0.132-0.395-0.132-0.527 0l-0.066 0.066c-0.132 0.132-0.132 0.395 0 0.527l3.69 3.69c0.132 0.132 0.395 0.132 0.527 0l0.066-0.066c0.132-0.132 0.132-0.395 0-0.527l-3.69-3.69z"></path>
<path d="M31.496 24.749c-0.198-0.198-0.527-0.198-0.725 0l-1.515 1.516c-0.198 0.198-0.198 0.527 0 0.725s0.527 0.198 0.725 0l1.515-1.515c0.198-0.198 0.198-0.527 0-0.725z"></path>
<path d="M24.973 17.83l0.132-0.132c0.198-0.198 0.198-0.527 0-0.725l-0.132-0.132c-0.198-0.198-0.527-0.198-0.725 0l-0.132 0.132-1.779-1.779-1.515 3.756 0.659 0.659-0.132 0.132c-0.198 0.198-0.198 0.527 0 0.725l0.132 0.132c0.198 0.198 0.527 0.198 0.725 0l0.132-0.132 0.659 0.659 2.636-2.636-0.659-0.659z"></path>
<path d="M0.395 24.287l0.395 0.395-0.791 0.791 1.713 1.713 0.791-0.791 0.329 0.395 2.504-2.504-2.504-2.438-2.438 2.438z"></path>
<path d="M4.324 20.335l-0.745 0.745 2.469 2.469 0.745-0.745-2.469-2.469z"></path>
<path d="M5.803 18.898l-0.745 0.745 2.469 2.469 0.745-0.745-2.469-2.469z"></path>
<path d="M6.909 17.087l-0.745 0.745 3.168 3.168 0.745-0.745-3.168-3.168z"></path>
<path d="M17.725 11.966l-1.252 1.252 3.888 4.151 0.857-2.109-3.492-3.295z"></path>
<path d="M15.089 9.528l-5.008-4.678-0.791 0.725 4.744 5.008 1.054-1.054z"></path>
<path d="M22.14 6.299c0.264-0.329 0.264-0.857 0-1.12l-0.132-0.132c-0.329-0.329-0.857-0.329-1.12 0l-12.256 12.256 1.252 1.252 12.256-12.256z"></path>
</symbol>
<symbol id="icon-twitter" viewBox="0 0 32 32">
<path d="M29.947 8c-1.027 0.467-2.133 0.773-3.28 0.92 1.173-0.707 2.080-1.827 2.507-3.173-1.107 0.667-2.333 1.133-3.627 1.4-1.053-1.147-2.533-1.813-4.213-1.813-3.133 0-5.693 2.56-5.693 5.72 0 0.453 0.053 0.893 0.147 1.307-4.747-0.24-8.973-2.52-11.787-5.973-0.493 0.84-0.773 1.827-0.773 2.867 0 1.987 1 3.747 2.547 4.747-0.947 0-1.827-0.267-2.6-0.667v0.040c0 2.773 1.973 5.093 4.587 5.613-0.839 0.23-1.72 0.262-2.573 0.093 0.362 1.137 1.071 2.131 2.028 2.844s2.113 1.108 3.305 1.129c-2.022 1.601-4.528 2.466-7.107 2.453-0.453 0-0.907-0.027-1.36-0.080 2.533 1.627 5.547 2.573 8.773 2.573 10.507 0 16.28-8.72 16.28-16.28 0-0.253 0-0.493-0.013-0.747 1.12-0.8 2.080-1.813 2.853-2.973z"></path>
</symbol>
<symbol id="icon-youtube" viewBox="0 0 32 32">
<path d="M13.333 20l6.92-4-6.92-4v8zM28.747 9.56c0.173 0.627 0.293 1.467 0.373 2.533 0.093 1.067 0.133 1.987 0.133 2.787l0.080 1.12c0 2.92-0.213 5.067-0.587 6.44-0.333 1.2-1.107 1.973-2.307 2.307-0.627 0.173-1.773 0.293-3.533 0.373-1.733 0.093-3.32 0.133-4.787 0.133l-2.12 0.080c-5.587 0-9.067-0.213-10.44-0.587-1.2-0.333-1.973-1.107-2.307-2.307-0.173-0.627-0.293-1.467-0.373-2.533-0.093-1.067-0.133-1.987-0.133-2.787l-0.080-1.12c0-2.92 0.213-5.067 0.587-6.44 0.333-1.2 1.107-1.973 2.307-2.307 0.627-0.173 1.773-0.293 3.533-0.373 1.733-0.093 3.32-0.133 4.787-0.133l2.12-0.080c5.587 0 9.067 0.213 10.44 0.587 1.2 0.333 1.973 1.107 2.307 2.307z"></path>
</symbol>
</defs>
</svg>
